:SAMPLES-PER-SECOND 24
:FULLY-SPECIFIED
:DEGREES
276
root  -8.13541 40.1491 -13.2001 89.228 5.07669 76.1585
RightUpLeg  -36.2327 -47.8874 -54.594
RightLeg  -0.126286 -23.5029 3.29922
RightFoot  -8.10378 0.205429 -9.29109
RightToes  -1.46203e-006 3.27826e-006 1.63871e-007
Spine  16.4036 0.617366 9.99155
Spine1  10.5198 12.4874 -34.7867
HEad  -0.176853 40.6421 -35.1079
LeftShoulder1  2.75962 -4.06121 -30.4566
LeftArm  2.75316 14.6466 -18.839
LeftForeArm  -32.2893 -23.6121 -6.6292
LeftHand  -1.33287 -0.313265 26.9198
RightShoulder  1.11415 3.71753 7.94021
RightArm  77.4833 64.979 110.827
RightForeArm  49.1663 73.9995 35.5331
RightHand  -0.401463 5.64358 -4.54036
LeftUpLeg  -24.0441 30.2733 41.8814
LeftLeg  83.5255 0.0562746 4.32788
LeftFoot  29.5501 0.641004 -2.21293
LeftToes  1.24767e-006 1.47042e-008 1.32732e-009
277
root  -8.30585 40.0007 -13.3415 84.1226 7.3188 75.0742
RightUpLeg  -39.2754 -49.0003 -51.0433
RightLeg  7.59851 -20.0917 2.74987
RightFoot  -9.17808 0.153748 -11.2757
RightToes  -1.46203e-006 3.27826e-006 1.63871e-007
Spine  17.2808 0.3053 11.3348
Spine1  11.9481 12.7544 -33.4619
HEad  0.993221 42.7885 -33.5773
LeftShoulder1  2.71072 -3.99967 -30.1012
LeftArm  -0.903478 14.5348 -19.1615
LeftForeArm  -27.708 -26.9919 -7.08028
LeftHand  -1.49527 -0.745409 28.0298
RightShoulder  1.28194 4.04102 9.69077
RightArm  75.2222 63.1944 105.607
RightForeArm  50.1827 74.3728 36.7407
RightHand  -0.284567 5.92691 -3.23964
LeftUpLeg  -21.0532 34.0379 36.8478
LeftLeg  105.491 -1.83096 5.02216
LeftFoot  34.0552 1.94195 -5.16379
LeftToes  1.24767e-006 1.47042e-008 1.32732e-009
278
root  -8.69546 39.9362 -13.7477 79.194 11.9343 75.0305
RightUpLeg  -38.7991 -49.1976 -47.5632
RightLeg  13.3083 -16.5167 2.13757
RightFoot  -10.6705 -0.00362868 -11.3054
RightToes  -1.46203e-006 3.27826e-006 1.63871e-007
Spine  19.0493 -0.844397 13.6876
Spine1  12.1918 12.953 -33.0269
HEad  -0.569613 44.3209 -31.183
LeftShoulder1  2.76931 -4.08067 -30.4917
LeftArm  -4.08266 14.6848 -16.9868
LeftForeArm  -21.1044 -31.3071 -7.9208
LeftHand  -1.51693 -0.437785 29.8516
RightShoulder  1.37563 4.25457 10.5164
RightArm  74.2921 62.198 103.664
RightForeArm  54.1209 75.9029 42.0982
RightHand  -0.195116 5.783 -2.34999
LeftUpLeg  -16.4475 39.4508 33.0768
LeftLeg  121.254 -2.97878 4.00816
LeftFoot  38.8719 4.72391 -10.6002
LeftToes  1.24767e-006 1.47042e-008 1.32732e-009
279
root  -8.95565 39.8116 -13.3849 76.1483 17.0209 75.789
RightUpLeg  -35.8202 -49.2836 -44.829
RightLeg  17.8052 -16.5899 0.593608
RightFoot  -13.4157 -0.29774 -11.4118
RightToes  -1.46203e-006 3.27826e-006 1.63871e-007
Spine  19.0064 -1.25102 14.9641
Spine1  12.477 13.2316 -32.8446
HEad  -1.44773 46.984 -31.0563
LeftShoulder1  2.82091 -4.10363 -31.067
LeftArm  -7.95394 15.4546 -14.8126
LeftForeArm  -15.6381 -37.3475 -9.42349
LeftHand  -1.4378 0.139253 31.3297
RightShoulder  1.41906 4.35936 10.8687
RightArm  74.0428 60.8313 104.141
RightForeArm  58.1769 76.8498 46.0606
RightHand  -0.250406 5.70982 -2.93878
LeftUpLeg  -13.5991 43.0639 31.0287
LeftLeg  128.833 -2.47931 2.42323
LeftFoot  43.8431 8.15839 -16.1008
LeftToes  1.24767e-006 1.47042e-008 1.32732e-009
280
root  -9.14561 40.0435 -12.2263 75.3287 21.5455 78.1254
RightUpLeg  -25.5055 -40.991 -47.833
RightLeg  16.0214 -25.7879 -2.04465
RightFoot  -12.2062 -0.171134 -11.4185
RightToes  -1.46203e-006 3.27826e-006 1.63871e-007
Spine  16.9292 -0.658443 14.0421
Spine1  13.6891 14.0949 -32.4341
HEad  -1.91198 49.437 -30.2009
LeftShoulder1  2.73517 -4.07688 -30.0544
LeftArm  -12.445 16.7976 -14.2626
LeftForeArm  -8.23102 -47.328 -12.7596
LeftHand  -1.24945 0.744431 30.7878
RightShoulder  1.51601 4.46 11.9683
RightArm  68.5359 58.7783 100.688
RightForeArm  67.8908 78.4056 54.6561
RightHand  -0.359932 5.73158 -4.07601
LeftUpLeg  -13.4887 37.7445 29.7176
LeftLeg  126.756 -0.494253 0.12121
LeftFoot  45.0955 8.51301 -16.3612
LeftToes  1.24767e-006 1.47042e-008 1.32732e-009
